<mxfile host="app.diagrams.net" modified="2023-10-14T01:38:26.448Z" agent="Mozilla/5.0 (Macintosh; Intel Mac OS X 10.15; rv:109.0) Gecko/20100101 Firefox/118.0" version="22.0.4" etag="Y8eK1pV11cmbguVL_zK0" type="github">
  <diagram name="PÃ¡gina-1" id="ZTfcnTV3digfSxjXb7rd">
    <mxGraphModel>
      <root>
        <mxCell id="0" />
        <mxCell id="1" parent="0" />
      </root>
    </mxGraphModel>
  </diagram>
</mxfile>
